<svg width="33" height="33" viewBox="0 0 33 33" fill="none" xmlns="http://www.w3.org/2000/svg">
<path d="M18.1197 26.1435C18.1485 23.2064 17.4038 20.8179 16.4566 20.8086C15.5094 20.7994 14.7182 23.1729 14.6895 26.11C14.6608 29.0471 15.4054 31.4357 16.3526 31.4449C17.2999 31.4542 18.0911 29.0807 18.1197 26.1435Z" fill="white"/>
<path d="M12.6262 25.4759C14.2384 23.0206 14.9034 20.6087 14.1116 20.0888C13.3197 19.5688 11.3709 21.1377 9.7587 23.593C8.14647 26.0483 7.48145 28.4602 8.27326 28.9802C9.06513 29.5001 11.0139 27.9312 12.6262 25.4759Z" fill="white"/>
<path d="M8.35877 21.954C11.0425 20.7603 12.906 19.0909 12.521 18.2253C12.136 17.3598 9.64837 17.6259 6.96459 18.8197C4.28084 20.0134 2.41734 21.6828 2.80233 22.5483C3.18731 23.4139 5.67502 23.1478 8.35877 21.954Z" fill="white"/>
<path d="M12.1989 15.7983C12.343 14.862 10.1064 13.7408 7.20336 13.294C4.30025 12.8471 1.83001 13.2439 1.68591 14.1802C1.54181 15.1164 3.7784 16.2376 6.68149 16.6844C9.58455 17.1313 12.0548 16.7345 12.1989 15.7983Z" fill="white"/>
<path d="M13.2411 13.5671C13.8685 12.8573 12.5928 10.705 10.3919 8.75989C8.19102 6.81475 5.8983 5.81331 5.27098 6.52311C4.64367 7.23292 5.91932 9.38517 8.12024 11.3303C10.3211 13.2755 12.6139 14.2769 13.2411 13.5671Z" fill="white"/>
<path d="M15.3168 12.2643C16.2283 12.0064 16.3189 9.50613 15.5191 6.67985C14.7194 3.85356 13.3321 1.77148 12.4207 2.02941C11.5092 2.28734 11.4186 4.78759 12.2183 7.61391C13.0181 10.4401 14.4054 12.5223 15.3168 12.2643Z" fill="white"/>
<path d="M20.9534 7.70108C21.8088 4.8911 21.7676 2.38954 20.8613 2.1137C19.9551 1.83784 18.5271 3.89215 17.6717 6.70213C16.8164 9.51209 16.8576 12.0137 17.7639 12.2895C18.6701 12.5653 20.0981 10.5111 20.9534 7.70108Z" fill="white"/>
<path d="M24.981 11.4982C27.2195 9.5964 28.537 7.46949 27.9236 6.74759C27.3103 6.02567 24.9984 6.98213 22.76 8.88382C20.5214 10.7856 19.204 12.9125 19.8173 13.6344C20.4306 14.3563 22.7425 13.3999 24.981 11.4982Z" fill="white"/>
<path d="M26.3126 16.8711C29.224 16.4816 31.4822 15.4048 31.3566 14.4658C31.231 13.5269 28.769 13.0816 25.8577 13.471C22.9464 13.8605 20.6881 14.9374 20.8137 15.8763C20.9393 16.8152 23.4012 17.2606 26.3126 16.8711Z" fill="white"/>
<path d="M30.0683 22.8161C30.4702 21.9584 28.64 20.2526 25.9803 19.0061C23.3207 17.7597 20.8387 17.4446 20.4367 18.3023C20.0347 19.1601 21.8649 20.8659 24.5246 22.1124C27.1843 23.3588 29.6663 23.6739 30.0683 22.8161Z" fill="white"/>
<path d="M24.4737 29.1451C25.2756 28.6409 24.6583 26.2163 23.0948 23.7298C21.5314 21.2432 19.6138 19.6362 18.8119 20.1404C18.01 20.6446 18.6273 23.0691 20.1908 25.5557C21.7542 28.0423 23.6718 29.6494 24.4737 29.1451Z" fill="white"/>
</svg>
